<svg xmlns="http://www.w3.org/2000/svg" viewBox="0 0 128 128">
  <!-- mcpelevator mark: elevator doors parting, the opening between them is the up
       arrow. Amber dot = the indicator lamp (drop it below 24px and in one-color use). -->
  <defs>
    <linearGradient id="g" x1="0" y1="0" x2="1" y2="1">
      <stop offset="0" stop-color="#4338CA"/>
      <stop offset="1" stop-color="#8B5CF6"/>
    </linearGradient>
  </defs>
  <rect width="128" height="128" rx="28" fill="url(#g)"/>
  <circle cx="64" cy="19" r="5" fill="#F5A524"/>
  <path fill="#fff" fill-rule="evenodd" d="M34 32 H94 A10 10 0 0 1 104 42 V94 A10 10 0 0 1 94 104 H34 A10 10 0 0 1 24 94 V42 A10 10 0 0 1 34 32 Z M60 32 L68 32 L88 58 L72 58 L72 104 L56 104 L56 58 L40 58 Z"/>
</svg>
